<svg preserveAspectRatio="none" overflow="visible" style="display: block;" width="23.9157" height="23.9157" viewBox="0 0 23.9157 23.9157" fill="none" xmlns="http://www.w3.org/2000/svg">
<g id="typcn:plus">
<path id="Vector" d="M17.9368 9.96489H13.9509V5.97894C13.9509 5.45037 13.7409 4.94344 13.3671 4.56969C12.9934 4.19593 12.4864 3.98596 11.9579 3.98596C11.4293 3.98596 10.9224 4.19593 10.5486 4.56969C10.1749 4.94344 9.96489 5.45037 9.96489 5.97894L10.0356 9.96489H5.97894C5.45037 9.96489 4.94344 10.1749 4.56969 10.5486C4.19593 10.9224 3.98596 11.4293 3.98596 11.9579C3.98596 12.4864 4.19593 12.9934 4.56969 13.3671C4.94344 13.7409 5.45037 13.9509 5.97894 13.9509L10.0356 13.8801L9.96489 17.9368C9.96489 18.4654 10.1749 18.9723 10.5486 19.3461C10.9224 19.7198 11.4293 19.9298 11.9579 19.9298C12.4864 19.9298 12.9934 19.7198 13.3671 19.3461C13.7409 18.9723 13.9509 18.4654 13.9509 17.9368V13.8801L17.9368 13.9509C18.4654 13.9509 18.9723 13.7409 19.3461 13.3671C19.7198 12.9934 19.9298 12.4864 19.9298 11.9579C19.9298 11.4293 19.7198 10.9224 19.3461 10.5486C18.9723 10.1749 18.4654 9.96489 17.9368 9.96489Z" fill="#7E80FF"/>
</g>
</svg>
